<?xml version="1.0" standalone="no"?>
<!DOCTYPE svg PUBLIC "-//W3C//DTD SVG 20010904//EN"
 "http://www.w3.org/TR/2001/REC-SVG-20010904/DTD/svg10.dtd">
<svg version="1.0" xmlns="http://www.w3.org/2000/svg"
 width="864.000000pt" height="864.000000pt" viewBox="0 0 864.000000 864.000000"
 preserveAspectRatio="xMidYMid meet">
<metadata>
Created by potrace 1.14, written by Peter Selinger 2001-2017
</metadata>
<g transform="translate(0.000000,864.000000) scale(0.100000,-0.100000)"
fill="#000000" stroke="none">
<path d="M3244 8608 c-16 -12 -31 -25 -34 -28 -3 -3 -48 -41 -100 -85 -52 -44
-96 -83 -98 -87 -2 -5 -10 -8 -18 -8 -8 0 -14 -3 -14 -7 0 -5 -36 -37 -80 -73
-44 -36 -80 -68 -80 -72 0 -5 -6 -8 -14 -8 -8 0 -16 -4 -18 -9 -1 -5 -50 -48
-108 -96 -58 -49 -128 -108 -156 -132 l-52 -44 2 -98 1 -99 -37 0 c-21 -1 -42
-3 -47 -7 -5 -3 -12 -2 -15 3 -5 9 -109 8 -125 -2 -6 -4 -11 -3 -11 1 0 10
-53 9 -69 -2 -6 -3 -16 -3 -23 1 -15 10 -60 10 -75 1 -7 -4 -14 -4 -17 1 -4 7
-93 7 -131 -1 -11 -3 -24 -2 -29 1 -15 9 -57 9 -62 0 -3 -5 -10 -5 -17 -1 -16
10 -58 10 -63 1 -3 -5 -10 -5 -17 -1 -16 10 -58 10 -63 1 -3 -5 -10 -5 -17 -1
-16 10 -57 10 -57 0 0 -4 -5 -5 -12 -1 -15 10 -60 10 -75 1 -7 -4 -14 -4 -17
1 -5 9 -109 8 -125 -2 -6 -4 -16 -4 -23 0 -15 10 -60 10 -75 1 -7 -4 -14 -4
-17 1 -5 9 -109 8 -125 -2 -6 -4 -16 -4 -23 0 -16 10 -69 11 -75 1 -2 -4 -9
-4 -16 0 -14 8 -115 8 -123 0 -4 -4 -14 -3 -23 1 -9 4 -25 6 -36 6 -11 -1 -28
-2 -37 -3 -17 -1 -18 -165 -18 -3293 l0 -3293 228 -73 c125 -41 236 -77 247
-82 16 -7 177 -61 195 -65 3 -1 12 -4 20 -7 33 -11 92 -31 240 -79 85 -28 175
-59 200 -68 25 -8 48 -16 53 -17 4 -1 8 -2 10 -4 1 -1 10 -3 20 -5 10 -2 26
-7 35 -11 9 -4 24 -8 32 -10 8 -2 23 -7 35 -12 11 -6 92 -33 180 -61 88 -29
169 -56 180 -61 11 -6 29 -12 40 -13 19 -4 34 -9 73 -24 9 -4 22 -8 27 -8 6
-1 17 -5 25 -8 18 -7 171 -58 185 -62 6 -1 17 -5 25 -8 8 -3 44 -15 80 -27 36
-11 72 -24 80 -27 8 -3 17 -7 20 -7 11 -2 276 -89 295 -96 34 -15 147 -52 161
-54 7 -1 17 -5 20 -9 4 -4 17 -7 29 -7 11 0 25 -4 30 -9 8 -7 164 -59 200 -67
6 -1 98 -32 205 -69 185 -63 289 -97 300 -100 3 0 21 -6 40 -13 31 -11 45 -9
105 11 39 13 75 25 80 27 6 1 21 7 35 12 14 6 32 11 40 13 8 2 15 4 15 5 0 1
7 3 15 5 8 2 78 24 155 50 77 26 145 48 150 49 6 1 15 4 20 7 9 6 258 89 280
94 6 1 17 5 25 8 23 10 201 68 219 72 9 2 43 14 76 25 33 12 67 24 75 25 8 2
49 16 90 30 80 28 96 34 108 36 4 1 18 6 32 11 14 5 32 11 40 13 8 2 39 13 68
24 28 10 52 17 52 14 0 -3 6 -1 12 5 7 6 30 13 51 17 20 4 37 10 37 14 0 4 6
8 13 8 13 0 318 98 352 113 19 8 56 20 80 26 6 2 24 8 40 14 43 16 417 140
435 145 8 2 129 42 268 88 138 47 252 83 252 80 0 -3 6 -1 13 4 6 5 50 22 97
37 47 15 92 30 100 34 8 3 20 6 25 7 6 0 15 3 20 6 6 3 31 12 58 19 l47 13 0
3294 0 3295 -25 -4 c-14 -3 -27 -2 -29 1 -6 9 -110 6 -125 -3 -6 -4 -16 -4
-23 0 -15 10 -60 10 -75 1 -7 -4 -14 -4 -17 1 -5 9 -109 8 -125 -2 -6 -4 -16
-4 -23 0 -15 10 -60 10 -75 1 -7 -4 -14 -4 -17 1 -5 9 -109 8 -125 -2 -6 -4
-16 -4 -23 0 -16 10 -69 11 -75 1 -2 -4 -9 -4 -16 0 -16 10 -57 10 -57 0 0 -4
-5 -5 -12 -1 -15 10 -60 10 -75 1 -7 -4 -14 -4 -17 1 -5 9 -109 8 -125 -2 -6
-4 -16 -4 -23 0 -15 10 -60 10 -75 1 -7 -4 -14 -4 -17 1 -5 9 -109 8 -125 -2
-6 -4 -16 -4 -23 0 -15 10 -60 10 -75 1 -7 -4 -14 -4 -17 1 -5 9 -109 8 -125
-2 -6 -4 -17 -4 -23 0 -18 11 -62 11 -70 -1 -5 -6 -8 -5 -8 3 0 7 -5 10 -10 7
-6 -3 -18 -4 -28 -1 -15 5 -17 19 -16 106 1 55 -1 100 -5 100 -3 0 -23 15 -43
33 -20 17 -54 46 -75 63 -40 33 -163 136 -247 208 -27 22 -58 49 -68 59 -10 9
-20 17 -23 17 -3 0 -13 8 -23 18 -40 38 -92 82 -97 82 -2 0 -22 16 -42 35 -42
37 -45 41 -120 103 l-51 42 -1055 0 -1054 0 -29 -22z"/>
</g>
</svg>
